<svg xmlns="http://www.w3.org/2000/svg" width="2500" height="2500" viewBox="0 0 192.756 192.756" fill="currentColor"><path d="M104.633 90.812l-1.076 1.614-.983 2.081-.584 2.245-.187 2.315.187 2.316.584 2.245.983 2.104 1.31 1.942 1.613 1.637 1.895 1.356 2.059 1.052 1.613.444-.678.141-1.685.866-1.496 1.168-1.241 1.404-.933 1.659-.563 1.802-.185 1.894.185 1.871.563 1.801.933 1.637 1.241 1.473 1.496 1.145 1.685.843 1.846.467 1.777.094h1.17l-.234.093-1.076.983-.817 1.239-.492 1.38-.188 1.426.188 1.451.492 1.379.817 1.239 1.076.983 1.31.678 1.426.373 1.311.025h5.308v.047l-2.457 5.121 4.514-3.414.539-.327 1.146-.866 1.168-1.052.678-1.193.305-.772.094-.795-.024-.795-.258-.701-.373-.679 1.332-.374 1.241-.562 1.074-.865.937-1.005.678-1.193.561-1.543.187-1.591-.187-1.613-.561-1.567-.865-1.357-1.147-1.169-1.193-.818 1.824-.024 1.918-.351 1.824-.678 1.684-.936 1.496-1.215 1.311-1.427 1.052-1.613.748-1.801.491-1.871.14-1.894-.14-1.965-.491-1.871-.748-1.777-1.052-1.613-1.311-1.427-1.496-1.239-1.684-.936-1.566-.561 1.053-.187 2.08-.632 1.988-1.006 1.426-1.192 1.756-1.59 1.425-1.918 1.147-2.058.795-2.198.49-2.245.305-2.035.07-2.058-.164-2.057-.328-2.082-.514-2.058-.748-2.034-.912-1.895-1.053-1.847-1.193-1.801-1.309-1.684-1.451-1.519-2.408-2.409-3.273 3.718h-13.635l-.678 1.005-.631 1.053-.187.584h-7.414l.046-.654-2.103-.983-1.006-.607-.935-.655-.68-.491-.701-.491-.701-.328-.842-.351-1.147-.07-1.121.188-1.006.444-.935.725-.655.959-.328 1.122.071 1.192.443 1.1.748.888 1.1.679 1.005.444-.677-.14-1.334.023-1.285.351-1.194.632-.982.888-.748 1.122-.467 1.24-.164 1.356.187 1.31.444 1.263.748 1.099 1.029.889 1.193.631 1.262.351 1.358.023.396-.117-1.144.842-.936 1.263-.445 1.006-.162 1.192.302 1.169.678.982.936.702 1.076.374z" /></svg>