<svg xmlns="http://www.w3.org/2000/svg" width="100%" height="100%" viewBox="0 0 185 145">
  <g fill="white">
    <path d="M115.816 141.233c-4.252-49.202 28.169-89.063 63.611-93.748 21.686 43.869-18.611 85.819-63.611 93.748z"/>
    <path d="M153.849 18.339c5.339 3.336 13.815 11.389 16.741 15.339-45.303 24.155-59.237 68.302-58.063 108.106-1.959.368-4.131.518-5.941.86-3.348-57.407 21.898-98.71 47.263-124.305z"/>
    <path d="M118.41 2.906c6.485 1.164 16.136 4.595 21.476 7.378-25.307 48.927-37.914 76.638-36.105 132.635l-5.822.367c.483-78.718 7.722-94.424 20.451-140.38zM103.208.58C96.691-.031 89.271-.246 81.582.365c6.907 47.886 7.689 68.153 8.987 143.039 1.629.033 2.806.033 4.795-.059-.3-74.399 1.328-94.451 7.844-142.765zM67.045 2.906c-6.487 1.164-16.109 4.595-21.446 7.378 25.275 48.927 37.914 76.638 36.074 132.635l5.851.367c-.514-78.718-7.753-94.424-20.479-140.38z"/>
    <path d="M31.633 18.339c-5.338 3.336-13.785 11.389-16.739 15.339 45.303 24.155 59.208 68.302 58.032 108.106 1.99.368 4.192.518 5.972.86 3.348-57.407-21.869-98.71-47.265-124.305z"/>
    <path d="M69.668 141.233C73.891 92.031 41.496 52.17 6.057 47.485c-21.718 43.869 18.579 85.819 63.611 93.748z"/>
  </g>
</svg>