<svg viewBox="10 110 230 35" width="100%" height="100%" xmlns="http://www.w3.org/2000/svg" fill="white">
	<path fill-rule="evenodd" clip-rule="evenodd" d="M 130 124 L 130 126 L 131 127 L 131 128 L 132 129 L 133 129 L 134 130 L 136 130 L 137 131 L 164 131 L 165 130 L 165 124 L 147 124 L 147 126 L 156 126 L 157 127 L 157 128 L 156 129 L 144 129 L 143 128 L 140 128 L 138 126 L 138 124 L 140 122 L 142 122 L 143 121 L 165 121 L 166 120 L 165 119 L 137 119 L 136 120 L 134 120 L 133 121 L 132 121 L 131 122 L 131 123 Z"/>
	<path fill-rule="evenodd" clip-rule="evenodd" d="M 91 120 L 91 130 L 92 131 L 119 131 L 120 130 L 123 130 L 126 127 L 126 123 L 124 121 L 123 121 L 122 120 L 120 120 L 119 119 L 92 119 Z"/>
	<path fill-rule="evenodd" clip-rule="evenodd" d="M 99 122 L 100 121 L 113 121 L 114 122 L 116 122 L 118 124 L 118 126 L 116 128 L 113 128 L 112 129 L 100 129 L 99 128 Z"/>
	<path fill-rule="evenodd" clip-rule="evenodd" d="M 11 119 L 11 130 L 12 131 L 39 131 L 40 130 L 42 130 L 43 129 L 44 129 L 46 127 L 46 124 L 45 123 L 45 122 L 44 121 L 43 121 L 42 120 L 40 120 L 39 119 Z"/>
	<path fill-rule="evenodd" clip-rule="evenodd" d="M 19 122 L 20 121 L 33 121 L 34 122 L 36 122 L 38 124 L 38 126 L 37 127 L 36 127 L 35 128 L 33 128 L 32 129 L 20 129 L 19 128 Z"/>
	<path fill-rule="evenodd" clip-rule="evenodd" d="M 50 123 L 50 127 L 52 129 L 53 129 L 54 130 L 57 130 L 58 131 L 67 131 L 68 132 L 72 132 L 73 131 L 81 131 L 82 130 L 84 130 L 87 127 L 87 123 L 86 122 L 85 122 L 84 121 L 83 121 L 82 120 L 80 120 L 79 119 L 71 119 L 70 118 L 65 118 L 64 119 L 57 119 L 56 120 L 54 120 L 53 121 L 52 121 Z"/>
	<path fill-rule="evenodd" clip-rule="evenodd" d="M 58 124 L 60 122 L 62 122 L 63 121 L 73 121 L 74 122 L 77 122 L 79 124 L 79 126 L 77 128 L 74 128 L 73 129 L 64 129 L 63 128 L 61 128 L 60 127 L 59 127 L 58 126 Z"/>
	<path fill-rule="evenodd" clip-rule="evenodd" d="M 237 111 L 224 111 L 218 117 L 218 118 L 211 125 L 211 126 L 205 132 L 205 133 L 198 140 L 198 141 L 197 142 L 210 142 L 214 138 L 214 137 L 220 131 L 220 130 L 227 123 L 227 122 L 233 116 L 233 115 Z"/>
	<path fill-rule="evenodd" clip-rule="evenodd" d="M 218 111 L 205 111 L 200 116 L 200 117 L 198 119 L 170 119 L 169 120 L 169 130 L 170 131 L 186 131 L 187 132 L 181 138 L 181 139 L 178 142 L 191 142 L 196 137 L 196 136 L 202 130 L 202 129 L 209 122 L 209 121 L 216 114 L 216 113 Z"/>
	<path fill-rule="evenodd" clip-rule="evenodd" d="M 177 127 L 178 126 L 190 126 L 191 127 L 189 129 L 179 129 Z"/>
	<path fill-rule="evenodd" clip-rule="evenodd" d="M 199 126 L 200 125 L 201 126 L 200 127 Z"/>
	<path fill-rule="evenodd" clip-rule="evenodd" d="M 178 122 L 179 121 L 194 121 L 195 122 L 195 123 L 194 124 L 179 124 L 178 123 Z"/>
</svg>
