<svg viewBox="102 186 298 120" width="100%" height="100%" xmlns="http://www.w3.org/2000/svg" fill="white">
    <path fill-rule="evenodd" clip-rule="evenodd" d="M 135 192 L 134 193 L 132 193 L 131 194 L 130 194 L 129 195 L 128 195 L 127 194 L 126 195 L 125 195 L 123 197 L 122 196 L 121 197 L 120 197 L 119 198 L 119 199 L 118 200 L 116 200 L 114 202 L 115 203 L 114 204 L 113 204 L 113 207 L 111 209 L 111 210 L 110 211 L 109 211 L 108 212 L 108 214 L 107 215 L 107 218 L 110 221 L 110 222 L 111 223 L 112 223 L 113 224 L 113 225 L 114 224 L 117 224 L 118 225 L 119 224 L 120 225 L 120 226 L 121 226 L 122 227 L 121 228 L 122 229 L 121 230 L 121 231 L 124 234 L 125 234 L 126 235 L 125 234 L 126 233 L 127 233 L 128 234 L 129 234 L 130 235 L 129 234 L 130 233 L 131 233 L 132 232 L 133 232 L 134 231 L 133 230 L 134 229 L 135 229 L 137 227 L 138 227 L 139 226 L 139 225 L 140 224 L 141 225 L 142 224 L 143 224 L 145 222 L 147 222 L 148 223 L 149 222 L 153 222 L 156 225 L 157 225 L 158 224 L 159 225 L 159 226 L 160 227 L 159 228 L 160 227 L 161 227 L 162 228 L 160 230 L 157 230 L 156 229 L 155 229 L 154 230 L 152 230 L 152 231 L 151 232 L 150 232 L 149 231 L 148 232 L 148 233 L 147 234 L 145 234 L 145 236 L 144 237 L 143 237 L 143 238 L 142 239 L 141 239 L 141 240 L 140 241 L 140 242 L 139 243 L 138 243 L 139 244 L 139 245 L 138 246 L 137 245 L 138 246 L 137 247 L 137 249 L 138 250 L 137 251 L 142 256 L 144 256 L 145 255 L 146 256 L 148 254 L 149 255 L 151 253 L 152 253 L 155 250 L 155 249 L 157 247 L 156 246 L 157 245 L 158 245 L 160 243 L 161 244 L 161 245 L 163 245 L 164 246 L 165 245 L 166 245 L 168 247 L 169 247 L 170 248 L 171 247 L 172 247 L 173 248 L 173 249 L 175 249 L 176 250 L 177 249 L 178 249 L 179 250 L 178 251 L 179 251 L 180 250 L 182 252 L 183 252 L 184 253 L 185 253 L 186 252 L 187 252 L 189 254 L 190 254 L 191 255 L 192 255 L 193 254 L 205 254 L 206 255 L 207 254 L 208 254 L 209 253 L 210 253 L 211 252 L 213 252 L 214 253 L 215 253 L 216 252 L 218 252 L 219 253 L 220 253 L 221 254 L 222 254 L 223 253 L 224 254 L 226 254 L 227 255 L 233 255 L 234 254 L 237 254 L 238 253 L 239 253 L 240 254 L 244 254 L 245 253 L 246 253 L 247 252 L 252 252 L 253 253 L 258 253 L 259 252 L 260 252 L 263 255 L 264 255 L 265 256 L 266 256 L 267 257 L 267 258 L 268 258 L 269 259 L 268 260 L 269 260 L 271 262 L 270 263 L 271 263 L 272 264 L 271 265 L 272 265 L 273 266 L 273 268 L 274 269 L 275 269 L 276 270 L 276 271 L 277 272 L 277 273 L 281 277 L 282 277 L 285 280 L 286 280 L 287 281 L 288 281 L 289 282 L 290 282 L 291 283 L 292 283 L 293 282 L 295 282 L 297 284 L 299 284 L 300 283 L 304 283 L 305 284 L 309 284 L 310 283 L 311 283 L 312 282 L 322 282 L 323 283 L 326 283 L 327 282 L 331 282 L 333 284 L 334 284 L 335 285 L 336 284 L 339 287 L 340 286 L 341 287 L 341 288 L 345 292 L 346 292 L 350 296 L 351 296 L 352 297 L 352 298 L 354 298 L 356 300 L 357 300 L 358 299 L 359 300 L 360 299 L 361 300 L 362 300 L 363 299 L 364 299 L 368 295 L 368 294 L 370 292 L 368 290 L 369 289 L 372 289 L 373 288 L 375 288 L 376 289 L 379 289 L 379 288 L 380 287 L 381 287 L 382 288 L 384 286 L 385 287 L 386 286 L 387 286 L 390 283 L 391 283 L 391 281 L 392 280 L 393 280 L 394 279 L 393 278 L 393 272 L 391 270 L 390 271 L 387 271 L 386 270 L 385 271 L 384 271 L 383 272 L 382 272 L 380 274 L 379 274 L 378 275 L 377 274 L 376 274 L 377 274 L 378 275 L 377 276 L 369 276 L 366 273 L 365 273 L 364 272 L 363 273 L 360 270 L 359 271 L 357 269 L 356 269 L 355 268 L 354 268 L 352 266 L 351 266 L 350 265 L 349 265 L 348 264 L 347 264 L 346 263 L 345 264 L 344 263 L 344 262 L 343 262 L 342 261 L 341 262 L 340 261 L 340 260 L 339 260 L 337 258 L 336 258 L 335 257 L 334 257 L 333 256 L 332 256 L 331 255 L 330 255 L 329 254 L 328 254 L 327 253 L 326 253 L 325 252 L 324 253 L 323 252 L 323 251 L 322 250 L 320 250 L 318 248 L 317 248 L 316 247 L 315 248 L 314 247 L 314 246 L 313 245 L 311 245 L 309 243 L 308 243 L 307 242 L 306 242 L 305 241 L 304 241 L 303 240 L 302 241 L 299 238 L 298 239 L 295 236 L 294 236 L 293 235 L 291 235 L 289 233 L 288 233 L 287 234 L 286 233 L 286 232 L 285 232 L 284 231 L 283 232 L 280 229 L 279 229 L 278 230 L 275 227 L 274 228 L 273 228 L 272 227 L 273 226 L 272 227 L 270 225 L 269 225 L 268 224 L 267 225 L 265 223 L 264 223 L 263 222 L 262 223 L 261 222 L 261 221 L 260 222 L 258 220 L 257 221 L 255 219 L 254 219 L 252 217 L 251 217 L 250 218 L 248 216 L 247 216 L 246 215 L 245 216 L 243 214 L 242 214 L 241 213 L 240 214 L 238 212 L 237 212 L 236 211 L 235 211 L 234 210 L 233 211 L 232 211 L 231 210 L 231 209 L 230 209 L 229 208 L 228 208 L 227 209 L 225 207 L 224 208 L 223 207 L 223 206 L 222 206 L 221 205 L 222 206 L 221 207 L 220 207 L 219 206 L 219 205 L 218 206 L 217 205 L 217 204 L 216 204 L 215 205 L 214 205 L 213 204 L 214 203 L 213 204 L 212 204 L 210 202 L 209 203 L 208 202 L 208 201 L 207 201 L 206 202 L 205 202 L 203 200 L 202 200 L 201 199 L 200 199 L 199 200 L 197 200 L 195 198 L 194 198 L 193 197 L 192 197 L 191 198 L 189 198 L 188 197 L 189 196 L 188 197 L 186 197 L 185 196 L 184 196 L 183 195 L 180 195 L 179 194 L 178 194 L 177 195 L 175 195 L 174 194 L 173 194 L 172 193 L 168 193 L 167 192 L 165 192 L 164 193 L 156 193 L 155 192 L 144 192 L 143 193 L 137 193 L 136 192 Z"/>
</svg>