<svg width="162" height="20" viewBox="0 0 162 20" fill="none" xmlns="http://www.w3.org/2000/svg">
<path d="M147.809 2.38178C149.371 0.83045 151.603 0 154.014 0C157.076 0 159.954 1.46482 161.632 4.08305L159.043 5.83622C157.734 4.11188 156.061 3.14302 153.968 3.14302C152.503 3.14302 151.119 3.59285 150.121 4.60784C149.187 5.55363 148.576 7.01269 148.576 9.13495V19.579H145.381V8.71395C145.381 5.91119 146.315 3.8639 147.814 2.38178M124.285 16.857C128.028 16.857 131.067 13.9273 131.067 10C131.067 6.07266 128.028 3.14302 124.285 3.14302C120.542 3.14302 117.48 6.07266 117.48 10C117.48 13.9273 120.542 16.857 124.285 16.857ZM114.21 10C114.21 4.50404 118.714 0 124.233 0C126.955 0 129.573 1.1015 131.43 2.95848C133.155 4.68281 134.233 7.04152 134.233 10.0231V19.579H131.038V16.6724C129.706 18.5294 126.955 19.9942 124.129 19.9942C118.604 19.9942 114.21 15.5998 114.21 9.99423M88.7947 17.2722C87.3818 15.7785 86.5167 13.737 86.5167 11.3552V0.420992H89.7117V10.94C89.7117 12.8777 90.3172 14.2099 91.2572 15.1788C92.3356 16.2976 93.8466 16.857 95.3403 16.857C96.8339 16.857 98.3449 16.3033 99.4233 15.1788C100.358 14.2042 100.969 12.8777 100.969 10.94V0.420992H104.164V11.361C104.164 13.7428 103.299 15.7785 101.886 17.278C100.26 19.0023 97.9066 20 95.3403 20C92.7739 20 90.421 19.0023 88.7947 17.278M56.3899 10C56.3899 4.45213 60.7612 0 66.4418 0C70.1326 0 73.0392 1.51672 74.8155 4.11188L72.1742 5.86505C70.8362 4.08305 68.8524 3.14302 66.4418 3.14302C62.7797 3.14302 59.6598 5.73241 59.6598 10C59.6598 13.9504 62.4856 16.857 66.4937 16.857C69.8674 16.857 72.4625 14.7866 73.1142 11.7532H68.7947V8.69089H76.361C76.4129 9.08305 76.4648 9.5271 76.4648 10C76.4648 15.4671 72.0934 20 66.4418 20C60.7901 20 56.3899 15.5767 56.3899 10ZM36.3956 16.857C40.1384 16.857 43.1776 13.9273 43.1776 10C43.1776 6.07266 40.1384 3.14302 36.3956 3.14302C32.6528 3.14302 29.5905 6.07266 29.5905 10C29.5905 13.9273 32.6528 16.857 36.3956 16.857ZM26.3206 10C26.3091 4.50404 30.8132 0 36.3322 0C39.0542 0 41.6724 1.1015 43.5294 2.95848C45.2595 4.68281 46.3322 7.04152 46.3322 10.0231V19.579H43.1373V16.6724C41.7993 18.5294 39.0542 19.9942 36.2284 19.9942C30.7036 19.9942 26.3091 15.5998 26.3091 9.99423M0.00576701 15.9112L2.59516 14.158C3.90427 15.8881 5.5767 16.8512 7.67013 16.8512C9.13495 16.8512 10.519 16.4014 11.5167 15.3864C12.451 14.4406 13.0623 12.9815 13.0623 10.8593V0.420992H16.2572V11.2803C16.2572 14.083 15.323 16.1303 13.8235 17.6125C12.2607 19.1638 10.0288 19.9942 7.61822 19.9942C4.55594 19.9942 1.6782 18.5294 0 15.9112" fill="#4C4A4D"/>
</svg>
