<svg xmlns="http://www.w3.org/2000/svg" viewBox="2 6 20 6" width="100%" height="100%"><path fill="white" d="M5.241 6.609a7 7 0 0 0-.293.01s-1.6.072-2.1.798c0 0-.085.098-.037.203c0 0 .01.03-.01.05c0 0-.27.24-.406.455c-.048.078-.102.209 0 .3c0 0 .045.035.063.065c.039.064.075.159.123.215c.07.084.211.228.41.193c.073-.013.09-.04.09-.04c.1.099.26.096.26.096c-.02-.064-.09-.188-.1-.263a.4.4 0 0 1 .015-.162a.7.7 0 0 1 .145-.271c.054-.054.192-.115.303-.038c.088.063.194.268.106.56c0 .022-.1.23-.205.26c0 0-.01.004-.03.004c-.07 0-.2-.073-.2-.073s0 .018.015.094c.012.043.027.09.04.127c0 0-.025.046-.042.072c-.025.045-.046.131.01.17c0 0 .23.157.455.171c.154.01.212-.095.212-.095c.114-.156.2-.29.32-.399c.327-.3.786-.38.786-.38c.03-.004.533-.144 1.386.539c-.244.02-.534.078-.756.117c-.632.113-1.037.71-1.155.952c-.307.633.32.851.32.851c.01-.006.6-.052.886-.683c0 0 .104-.279.383-.188c.182.059 1.79.62 2.152.716c0 0 1.077.28 1.482-.215c.649.213 1.257.316 2.85.11c.277-.036.495-.027.495-.027c.372.027.712.278.815.442c.42.671.95 2.003 2.796 1.841l.835-.076c.51-.03.924-.05 1.345.172c.183.096.285.131.596.428c.425.404.816.842 1.336.603c.185-.085.393-.415.393-.415a.6.6 0 0 0-.253-.419c.473.113 1.54.185 1.952-.536c.107-.168.118-.318.078-.408c-.113-.253-.426-.17-.426-.17c-.148.03-.317.2-.568.274c-.538.16-.968-.026-.968-.026c-.829-.359-3.493-1.884-4.848-2.55c0 0-1.555-.78-3.839-1.684c0 0-4.148-1.823-7.212-1.77zm0 .136c3-.051 7.113 1.739 7.154 1.758v.001q.552.22 1.043.425l-.475-.188a43 43 0 0 0-1.828-.645c-1.544-.533-2.22-.627-2.267-.633a6 6 0 0 0-.256-.038l-.278-.032l.154.249c-1.09-.771-2.395-.81-2.459-.812c-.263 0-.492.075-.67.16l.089-.165l-.216-.01a6 6 0 0 0-.901.018a5 5 0 0 1 .908-.088z"/></svg>