<svg xmlns="http://www.w3.org/2000/svg" viewBox="15 45 185 105" width="100%" height="100%">
  <path fill="white" d="M189.838 96.887c-.287-1.146-1.049-2.291-2.195-2.958-3.625-.859-7.633.763-10.875-1.049-15.076-10.877-30.914-19.655-47.611-26.333-12.975-5.152-25.76-10.972-39.117-15.456-3.053-1.24-7.06-.858-10.304-1.145-9.541-.572-19.178-.095-27.096 3.912-1.145.572-2.003 1.813-2.099 3.054-1.526 1.622-3.721 2.958-4.198 5.057.096.858.478 1.717 1.336 2.194.477.954.954 1.908 1.813 2.48 1.049.668 2.48.763 3.625.382 1.05-.096.572-1.241.572-1.908 0-.859.478-1.717 1.336-2.1 1.049-.477 2.099 0 2.767.955.382.573.286 1.431 0 2.099-.381.764-1.145 1.241-2.003 1.336-.764.096-.764.954-.955 1.526.095.954.191 2.099 1.24 2.672.668.477 1.717.667 2.576.381 2.862-1.622 5.629-3.721 8.587-5.343l7.156 2.671c.668.477 1.717.381 1.908 1.335-1.05.573-2.48.668-3.625 1.241-1.24 2.003-2.481 4.007-3.148 6.202l1.717 3.816c.572 2.671 3.816 1.622 5.725 2.194l.667-.095c1.336-1.813 2.863-3.53 3.817-5.343 5.915-.572 11.067 2.004 17.174 1.05 5.438 1.526 11.734 1.812 17.555 1.526 3.244.477 7.25-1.908 9.922.668 3.627 3.625 6.869 8.014 10.686 11.735 1.527 1.049 3.244 1.908 5.152 2.194l18.701 1.335c2.957 2.385 5.725 5.344 8.969 7.537l6.297.572 2.861-2.766 6.68-.477c1.336-.096 2.576-.479 3.434-1.623.761-.952 1.24-2.099.953-3.528z"/>
</svg>