<svg viewBox="97 181 308 130" width="100%" height="100%" xmlns="http://www.w3.org/2000/svg">
    <path fill="white" fill-rule="evenodd" d="M 350 270 L 353 270 L 357 272 L 358 274 L 361 276 L 363 275 L 364 277 L 366 278 L 369 277 L 371 279 L 373 279 L 378 279 L 380 279 L 383 278 L 385 277 L 387 275 L 391 277 L 389 278 L 386 282 L 380 284 L 375 285 L 372 285 L 368 284 L 366 285 L 363 282 L 361 283 L 360 281 L 358 279 L 354 276 L 350 273 Z M 304 245 L 307 248 L 309 247 L 310 249 L 313 251 L 316 252 L 320 253 L 321 255 L 323 255 L 325 257 L 327 258 L 331 260 L 333 261 L 335 262 L 330 264 L 323 264 L 321 262 L 317 261 L 315 262 L 309 257 L 308 254 L 305 251 L 303 250 L 302 247 Z M 121 217 L 125 216 L 128 218 L 127 221 L 126 223 L 123 224 L 122 222 L 120 220 L 122 219 Z M 117 211 L 118 210 L 122 211 L 120 212 L 119 214 L 119 217 L 116 219 L 114 219 L 111 217 L 113 215 L 116 211 Z M 164 198 L 165 200 L 167 200 L 170 199 L 172 201 L 177 201 L 178 203 L 180 204 L 182 205 L 184 204 L 185 206 L 187 206 L 191 208 L 196 214 L 198 214 L 199 212 L 196 209 L 196 207 L 198 206 L 200 208 L 202 208 L 205 208 L 207 208 L 209 210 L 214 210 L 214 212 L 217 213 L 222 213 L 227 216 L 229 215 L 235 219 L 238 218 L 239 220 L 241 221 L 243 220 L 247 223 L 249 222 L 251 224 L 253 225 L 256 225 L 258 227 L 260 226 L 263 229 L 265 230 L 267 229 L 270 232 L 272 231 L 275 234 L 277 235 L 282 237 L 287 239 L 289 238 L 293 240 L 294 242 L 296 242 L 298 244 L 300 243 L 301 245 L 303 246 L 301 248 L 299 246 L 299 249 L 301 252 L 302 254 L 304 254 L 303 256 L 305 260 L 308 263 L 311 266 L 313 267 L 317 266 L 335 267 L 340 269 L 342 268 L 342 270 L 346 272 L 348 275 L 350 276 L 350 278 L 358 286 L 360 287 L 362 288 L 365 289 L 365 292 L 362 293 L 360 293 L 355 291 L 354 294 L 352 294 L 351 292 L 343 284 L 339 281 L 336 279 L 334 278 L 332 277 L 328 277 L 330 276 L 328 277 L 325 276 L 322 276 L 315 276 L 312 276 L 305 276 L 297 277 L 294 277 L 293 275 L 290 276 L 290 274 L 286 273 L 284 272 L 280 268 L 275 264 L 273 259 L 271 257 L 269 253 L 267 252 L 267 250 L 265 248 L 263 246 L 260 243 L 258 242 L 254 241 L 255 243 L 257 244 L 256 247 L 252 247 L 250 249 L 247 248 L 245 249 L 242 249 L 240 249 L 229 249 L 226 250 L 223 248 L 221 249 L 220 247 L 217 248 L 214 246 L 212 241 L 212 239 L 214 236 L 217 238 L 221 239 L 223 239 L 238 239 L 239 237 L 231 236 L 235 235 L 232 235 L 229 235 L 226 234 L 224 235 L 223 233 L 221 234 L 216 231 L 214 232 L 213 230 L 208 228 L 206 226 L 204 226 L 202 225 L 203 227 L 203 229 L 206 231 L 208 235 L 207 237 L 209 238 L 209 241 L 209 243 L 207 248 L 203 250 L 194 249 L 192 250 L 191 248 L 189 249 L 188 247 L 185 248 L 183 246 L 181 246 L 177 246 L 175 244 L 171 244 L 169 244 L 167 242 L 165 241 L 163 241 L 157 240 L 155 242 L 153 247 L 150 250 L 148 249 L 145 247 L 145 244 L 144 241 L 148 237 L 153 235 L 157 233 L 161 233 L 165 231 L 169 231 L 172 233 L 174 234 L 177 233 L 177 235 L 179 235 L 181 236 L 184 236 L 188 238 L 191 237 L 189 236 L 187 235 L 185 233 L 183 234 L 182 232 L 179 231 L 173 226 L 170 221 L 169 218 L 168 226 L 166 225 L 162 222 L 158 220 L 156 221 L 154 220 L 152 218 L 150 218 L 145 213 L 144 211 L 142 210 L 145 208 L 146 210 L 150 212 L 153 213 L 156 215 L 158 217 L 160 218 L 161 216 L 160 214 L 159 212 L 157 210 L 154 208 L 153 206 L 149 205 L 148 202 L 150 201 L 151 199 L 154 199 Z M 132 198 L 137 200 L 135 201 L 133 203 L 138 206 L 140 208 L 139 213 L 141 213 L 141 219 L 139 221 L 134 225 L 130 228 L 129 225 L 131 224 L 131 222 L 133 220 L 133 216 L 131 215 L 132 213 L 130 211 L 127 209 L 125 208 L 127 207 L 128 205 L 128 201 L 126 200 L 130 200 Z M 134 193 L 132 193 L 129 195 L 127 194 L 125 195 L 122 196 L 120 197 L 119 199 L 116 200 L 114 202 L 113 204 L 113 207 L 111 209 L 109 211 L 107 215 L 107 218 L 110 221 L 112 223 L 113 225 L 119 224 L 120 226 L 122 227 L 122 229 L 121 231 L 124 234 L 126 235 L 128 234 L 130 235 L 131 233 L 134 231 L 137 227 L 141 225 L 143 224 L 145 222 L 148 223 L 153 222 L 156 225 L 158 224 L 159 228 L 162 228 L 160 230 L 157 230 L 154 230 L 152 230 L 151 232 L 149 231 L 147 234 L 145 234 L 145 236 L 143 237 L 141 239 L 138 243 L 139 245 L 137 245 L 137 247 L 137 251 L 142 256 L 146 256 L 149 255 L 152 253 L 155 250 L 156 246 L 158 245 L 160 243 L 161 245 L 164 246 L 166 245 L 168 247 L 170 248 L 172 247 L 173 249 L 176 250 L 178 249 L 178 251 L 182 252 L 187 252 L 189 254 L 193 254 L 206 255 L 211 252 L 213 252 L 216 252 L 218 252 L 221 254 L 223 253 L 227 255 L 233 255 L 237 254 L 240 254 L 244 254 L 247 252 L 252 252 L 258 253 L 260 252 L 263 255 L 268 258 L 268 260 L 270 263 L 271 265 L 273 266 L 274 269 L 277 273 L 281 277 L 285 280 L 290 282 L 293 282 L 295 282 L 297 284 L 299 284 L 304 283 L 309 284 L 312 282 L 323 283 L 326 283 L 331 282 L 333 284 L 336 284 L 340 286 L 345 292 L 350 296 L 352 298 L 354 298 L 356 300 L 358 299 L 360 299 L 364 299 L 368 295 L 370 292 L 368 290 L 373 288 L 375 288 L 379 289 L 380 287 L 382 288 L 385 287 L 387 286 L 391 283 L 391 281 L 394 279 L 393 272 L 391 270 L 386 270 L 384 271 L 382 272 L 380 274 L 378 275 L 376 274 L 378 275 L 369 276 L 366 273 L 363 273 L 359 271 L 352 266 L 350 265 L 346 263 L 344 262 L 342 261 L 340 260 L 337 258 L 331 255 L 325 252 L 322 250 L 320 250 L 318 248 L 316 247 L 313 245 L 311 245 L 309 243 L 307 242 L 302 241 L 298 239 L 295 236 L 293 235 L 291 235 L 289 233 L 287 234 L 286 232 L 284 231 L 280 229 L 278 230 L 275 227 L 273 228 L 273 226 L 270 225 L 268 224 L 265 223 L 263 222 L 261 221 L 257 221 L 252 217 L 250 218 L 248 216 L 246 215 L 243 214 L 241 213 L 236 211 L 234 210 L 232 211 L 231 209 L 229 208 L 227 209 L 224 208 L 223 206 L 221 205 L 220 207 L 219 205 L 217 204 L 214 205 L 214 203 L 212 204 L 210 202 L 208 201 L 205 202 L 203 200 L 199 200 L 197 200 L 195 198 L 191 198 L 189 198 L 189 196 L 186 197 L 183 195 L 180 195 L 177 195 L 175 195 L 172 193 L 167 192 L 165 192 L 156 193 L 143 193 L 137 193 Z"/>
</svg>