<svg xmlns="http://www.w3.org/2000/svg" viewBox="0 45 195 90" width="100%" height="100%">
  <path fill="white" d="M75.823 100.035l.411.248c.037.023-.074 5.166-.087 5.131-3.149-2.193-7.288-3.375-11.2-2.326-2.767.857-5.247 3.34-6.297 6.01-1.813 4.771-1.145 11.355 2.576 15.076 2.194 2.385 5.916 2.957 8.873 2.002l.477-.572c0-3.434.572-7.154-1.049-10.207l.543-.221 6.803.029c.382 4.389.096 8.586 0 12.975l-.477.479c-6.679 2.193-16.602 3.053-21.563-2.959-4.103-4.197-4.771-10.971-3.148-16.41 1.24-4.197 5.152-8.301 9.445-9.541 4.579-1.433 10.305-1.145 14.693.286zM16.317 99.711l-.315 25.607c-.286 5.057-2.386 9.445-6.393 12.594-.016-.045-6.7.029-6.774 0 .668-1.049 1.813-1.812 2.863-3.053 2.671-3.34 3.721-7.348 3.721-11.641l.381-19.366c-.096-1.623-.477-3.055-1.24-4.389.381-.479 1.335-.295 2.003-.287l5.335-.037.419.572zM89.944 100.225l-.096 20.229c.191 1.621.764 3.242 2.195 4.293 1.717 1.43 4.198 1.717 6.393 1.145 1.621-.572 3.148-1.908 3.912-3.531l.572-2.957.029-17.125c-.074-1.025-.846-2.01-1.139-2.461-.168-.262.229-.201.229-.201l6.348.008c-.01.076.107.152.088.229-.191.73-.803 1.523-.975 2.473-.383 5.916-.191 12.021-.383 18.129-.381 3.814-2.766 7.154-6.201 8.682-4.675 1.908-10.781 1.24-14.502-2.1-2.385-2.004-3.148-5.152-3.148-8.301-.191-5.725.572-11.449-.286-17.27l-.734-1.879 7.508.037.19.6zM162.551 104.613c.859 2.48.477 5.631-.955 7.729-.953 1.24-2.289 2.1-3.625 2.863l-.096.285c2.576 4.58 4.771 9.541 8.109 13.74l-.16.227s-6.66.346-7.758-.418l-1.24-1.527-6.135-13.033c-.041-.186-.01-.297.189-.467 1.465-.111 2.635-.102 3.568-.781 2.004-1.336 2.186-4.037 1.9-6.326-.383-1.336-.764-2.576-2.1-3.34-1.145-.859-2.863-.572-4.389-.572l-.354.277-.029 23.385.83 2.547-.477.285-6.936.037-.287-.285s.25-26.305.25-27.166c-.066-.861-.768-2.025-.795-2.227-.021-.123.098-.111.098-.23 4.668-.059 9.703-.152 14.568.133 2.484.476 5.06 2.29 5.824 4.864zM46.723 124.746l-10.495-25.57c-.35-.059-2.732-.021-3.053 0-3.816 8.873-7.442 17.938-11.354 26.715l-2.385 3.625.029.125c.008.037 6.347-.008 6.393.008 0-.859-.029-2.23.353-3.186.477-1.432 1.389-3.678 1.805-4.197l10.32.037.278.152 1.662 4.277.533 2.783 8.748.008c-.001 0-2.166-3.06-2.834-4.777zm-10.209-6.392c-.169.066-6.405.059-6.774 0l-.095-.383 3.721-8.969 3.434 9.064-.286.288zM135.773 124.879l-10.496-25.57c-.35-.059-2.732-.021-3.053 0-3.816 8.873-7.441 17.938-11.354 26.715l-2.387 3.625.029.125c.008.037 6.348-.008 6.393.008 0-.859-.029-2.232.354-3.186.477-1.432 1.389-3.678 1.805-4.199l10.32.037.277.154 1.662 4.275.533 2.785 8.748.008c.001 0-2.163-3.06-2.831-4.777zm-10.209-6.393c-.17.066-6.406.059-6.775 0l-.096-.383 3.723-8.969 3.434 9.064-.286.288z"/>
</svg>