<svg xmlns="http://www.w3.org/2000/svg" width="100%" height="100%" viewBox="0 45 192 75"><g fill="white"><path d="M189.838 96.887c-.287-1.146-1.049-2.291-2.195-2.958-3.625-.859-7.633.763-10.875-1.049-15.076-10.877-30.914-19.655-47.611-26.333-12.975-5.152-25.76-10.972-39.117-15.456-3.053-1.24-7.06-.858-10.304-1.145-9.541-.572-19.178-.095-27.096 3.912-1.145.572-2.003 1.813-2.099 3.054-1.526 1.622-3.721 2.958-4.198 5.057.096.858.478 1.717 1.336 2.194.477.954.954 1.908 1.813 2.48 1.049.668 2.48.763 3.625.382 1.05-.096.572-1.241.572-1.908 0-.859.478-1.717 1.336-2.1 1.049-.477 2.099 0 2.767.955.382.573.286 1.431 0 2.099-.381.764-1.145 1.241-2.003 1.336-.764.096-.764.954-.955 1.526.095.954.191 2.099 1.24 2.672.668.477 1.717.667 2.576.381 2.862-1.622 5.629-3.721 8.587-5.343l7.156 2.671c.668.477 1.717.381 1.908 1.335-1.05.573-2.48.668-3.625 1.241-1.24 2.003-2.481 4.007-3.148 6.202l1.717 3.816c.572 2.671 3.816 1.622 5.725 2.194l.667-.095c1.336-1.813 2.863-3.53 3.817-5.343 5.915-.572 11.067 2.004 17.174 1.05 5.438 1.526 11.734 1.812 17.555 1.526 3.244.477 7.25-1.908 9.922.668 3.627 3.625 6.869 8.014 10.686 11.735 1.527 1.049 3.244 1.908 5.152 2.194l18.701 1.335c2.957 2.385 5.725 5.344 8.969 7.537l6.297.572 2.861-2.766 6.68-.477c1.336-.096 2.576-.479 3.434-1.623.761-.952 1.24-2.099.953-3.528zm-3.817 2.384c-2.195.381-4.58.477-6.965.572-1.24-1.336-2.195-2.863-3.436-4.103-1.43 0-3.244.095-4.484-.859l-8.395-7.633c-2.672-.381-5.916.096-8.301-1.05-2.863-3.148-6.297-6.678-9.924-8.682-.381.095-.096.381 0 .572 3.436 3.053 6.203 6.774 8.969 10.304l1.336.763 7.061.572 8.301 7.442c1.145.764 2.768.764 4.293.859.572 1.145 2.576 2.193 1.812 3.625-1.525 2.004-4.293.477-6.393.477l-8.49-7.441-19.654-1.431c-1.527-.381-2.959-.954-4.104-2.194l-10.494-11.831c-.955-.763-2.004-1.145-3.244-1.05-7.252.954-15.361 1.145-22.422-.382-.287-.954.764-1.717 1.24-2.385l.477-.286c4.867.572 10.209.477 14.598-1.336l-.189-.095c-4.867.667-9.828 0-14.312-1.145l-5.438-10.495c-.191-.955.381-1.717 1.145-2.099.285-.191.859.095 1.145-.286-.572-.668-1.621-.573-2.385-.477-.954.191-1.717 1.049-2.004 1.908-.572 1.146.191 2.291.668 3.244l4.484 8.778c-.287 1.622-1.717 2.767-2.576 4.103-2.958.572-6.202.096-9.255-.191-3.625-.763-7.346-1.145-11.258-.572-.477.859.573 1.526.477 2.385-.668 1.05-1.24 2.385-2.385 2.862l-2.194-.381c-.572-1.24-1.717-2.48-1.431-4.007l1.717-3.053c6.201-2.767 13.548-2.385 20.608-1.813l.191-.191c-2.672-1.335-5.82-1.622-8.778-2.099-1.145-1.432-2.576-2.862-3.053-4.58.19-2.003.763-3.912 1.336-5.82-.382-.287-.668.286-.859.477-1.431 1.622-2.481 3.339-3.339 5.248 0 1.717 1.813 2.958 2.29 4.484-.858.191-1.717.381-2.671.095-3.053-3.721-7.919-3.816-11.735-5.915-.19-.954.477-2.004 1.24-2.672 2.767.764 5.343 2.099 8.11 2.862 1.526-.286 2.194-1.717 3.339-2.767.668-.859 1.432-1.813 1.813-2.767l-.191-.191c-1.812 1.145-3.53 2.671-5.629 3.148l-8.587-3.244-.381.095c-1.336 2.671-2.48 5.534-4.771 7.824-1.622.954-3.053 2.289-4.866 2.862l-.095-.095c1.431-1.05 2.48-2.48 2.385-4.198 0-1.24-.572-2.29-1.526-3.148-.858-.858-2.099-1.049-3.339-1.049-1.622.191-2.958 1.335-3.625 2.862-.096.478 0 1.145-.572 1.241-.764 0-1.05-.763-1.336-1.336-.096-1.24.572-2.099 1.431-2.958-.763-.191-1.431.477-2.195.763.859-1.049 2.195-3.244 3.817-2.672 1.717.763 4.103-.667 5.82.668.572.095 1.05.763 1.622.858 0-1.24-1.05-2.194-1.908-3.053 0-.668.763-.954 1.336-1.049 1.908 0 3.53 1.24 5.343 1.049L68 54.333c.859-.382 2.004-.382 2.862-.859l-.19-.095c-1.527-.191-3.149-.096-4.389.382l-2.003 1.621c-1.431 0-2.958-.381-4.294-.381-2.099.381-4.007 1.05-6.011 1.431-.381-.19 0-.477.191-.668 6.487-2.862 13.738-3.912 21.562-3.721l11.067.477c7.251 1.908 14.025 5.057 20.99 7.728 23.471 8.969 46.656 18.987 67.359 34.634 2.957 1.622 6.965 1.336 10.59 1.241.764.096 1.146.668 1.336 1.24 0 .858-.285 1.528-1.049 1.908z"/></g></svg>