<svg xmlns="http://www.w3.org/2000/svg" viewBox="2 6 22 8" width="100%" height="100%">
  <path fill="white" d="m0 .136c3-.051 7.113 1.739 7.154 1.758v.001q.552.22 1.043.425l-.475-.188a43 43 0 0 0-1.828-.645c-1.544-.533-2.22-.627-2.267-.633a6 6 0 0 0-.256-.038l-.278-.032l.154.249c-1.09-.771-2.395-.81-2.459-.812c-.263 0-.492.075-.67.16l.089-.165l-.216-.01a6 6 0 0 0-.901.018a5 5 0 0 1 .908-.088zm-.319.198q.142 0 .307.008l-.036.067c-.077.146-.385.448-.892.336c0 0 0 .226.555.307c0 0 .497.088 1.341.767c0 0-.403-.802-1.088-1.01c0 0-.086-.018-.044-.072c0 0 .404-.38.967-.38c0 0 1.754.038 2.869 1.204c0 0-.05-.203-.225-.49l-.073-.12s.067.008.25.038c0 0 .67.083 2.243.626c0 0 1.179.388 1.824.643c.97.387 3.398 1.327 4.947 2.172c.276.15 3.077 1.61 3.077 1.61c.775.349 1.312.137 1.312.137c.175-.066.492-.31.63-.172c.071.071.081.167.047.26c-.04.14-.24.328-.483.435c-.255.114-.787.144-1.094.094c0 0-.596-.06-1.117-.605c-.165-.172-.367-.367-.554-.559a1.04 1.04 0 0 0-.62-.333c-.35-.047-1.205-.07-1.526-.177c-.215-.072-.474-.217-.819-.728c-.166-.244-.283-.311-.509-.455c0 0 .173.138.271.312c.142.252.213.435.29.57s.164.254.295.36c.164.131.266.156.443.185c.17.028.742.023 1.232.016c.483-.008.699.148.857.282c.147.124.4.477.554.632c.184.184.32.372.684.556c.127.064.334.222.323.374c-.164.164-.367.207-.855.076c.035.034.29.303.727.176a.56.56 0 0 1-.396.15c-.458-.026-.906-.59-1.158-.798c-.19-.158-.213-.197-.537-.422c-.493-.341-1.598-.245-1.598-.245l-.812.042c-1.58.12-2.244-1.28-2.419-1.572a2 2 0 0 0-.168-.25c-.08-.108-.512-.668-.949-.852c0 0 .43.37.404.614c0 0-.178-.083-.662-.014c-2.081.297-2.79-.224-2.79-.224c.097-.417-.194-.845-.194-.845c.16.05 1.184.396 2.155.2c0 0-1.581.008-2.69-.877c0 0 .69.865.526 1.431c0 0-.113.603-1.316.36c-.129-.025-.28-.068-2.08-.568c-.424-.127-.57.075-.647.197c0 .178-.213.386-.318.45c-.558-.1-.336-.617-.336-.617c-.35.502.017.724.133.74q-.106.049-.19.078s-.457-.271-.202-.715c.355-.62.717-.819 1.38-.88c.29-.027.531-.048.715-.022c.48.066.782.338 1.502.407c-1.528-.45-1.532-1.335-1.537-1.352V8.5c-.085.292-.038.538.037.746c-.02-.008-.355-.228-.483-.305c-.548-.335-.982-.394-.982-.394c-.182-.023-.266-.244-.266-.244c-.01-.011-.013-.022-.02-.032c-.252-.432-.502-.44-.502-.44a.84.84 0 0 1 .136.372c.01.055.014.157.014.187c0 .462-.54.607-.54.607c-.372.473-.353.483-.436.495s-.265-.08-.265-.08c-.014-.008-.018-.029-.016-.042c0-.029.028-.047.028-.047c.07-.055.127-.11.127-.11c.394-.403.441-.6.393-.861c-.1-.524-.474-.463-.474-.463c-.182.018-.256.168-.256.168a5 5 0 0 0-.195.392c-.08.176-.164.215-.207.223a.4.4 0 0 1-.065.003c-.127-.005-.223-.121-.223-.121c-.01-.006-.01-.013-.016-.018c-.116-.124-.032-.287-.032-.287c.156-.363.46-.416.5-.421l.182-.026c.385-.065.567-.466.567-.466a3 3 0 0 0-.386.014c-.256.045-.343.346-.343.345c-.216.05-.21-.136-.172-.193c.034-.052.16-.275.991-.467c0 0 .314-.095.978-.092m-.159.12c-.2 0-.305.112-.305.123c0 .006.027.009.07.01l.07.003a.8.8 0 0 0 .32-.083a.4.4 0 0 0 .092-.052l-.245-.002zm.164.363v.004c.03.081.108.11.143.12v-.001c.163.05.309.138.437.241c-.39-.218-.613-.261-.628-.264a2 2 0 0 1-.157-.032a1 1 0 0 0 .208-.068zm-1.364.05s-.05.16-.247.194c0 0-.077.018-.108.019l.021-.06c0-.012.051-.138.165-.15c0 0 .066-.004.169-.004zm-.683.233a.2.2 0 0 0 .056.047c-.135.057-.485.432-.485.432c.177-.262.408-.458.41-.46c0-.003.01-.006.01-.009s.01-.007.01-.01zm.737.315c.038-.005.217-.012.3.27a.43.43 0 0 0-.14-.185a.34.34 0 0 0-.254-.055a.2.2 0 0 1 .094-.03m-1.282 7.398v.873c0 .255-.056.426-.18.55c-.165.162-.437.228-.84.228H0v.256h1.428c.677 0 1.156-.092 1.405-.347c.143-.146.212-.329.212-.63v-.93z"/>
</svg>