<?xml version="1.0" encoding="utf-8"?>
<!-- Autor: Mark-Centurion@ya.ru -->
<!DOCTYPE svg PUBLIC "-//W3C//DTD SVG 1.1//EN" "http://www.w3.org/Graphics/SVG/1.1/DTD/svg11.dtd">
<svg version="1.1" id="lada" xmlns="http://www.w3.org/2000/svg" xmlns:xlink="http://www.w3.org/1999/xlink" x="0px" y="0px"
	 viewBox="0 0 85.6 31.1" enable-background="new 0 0 85.6 31.1" xml:space="preserve">
<path fill-rule="evenodd" clip-rule="evenodd" fill="#F2F8F6" stroke="#5882B4" stroke-miterlimit="10" d="M84.7,24.7
	c-1-0.8-3.3,2.4-4.3,2c-0.7-0.2,0.5-1.6,1.1-2.6c0.6-1,0.6-3.7-0.9-5.4c-1.4-1.6-4.1-2.2-5.9-2c-1.7,0.3-3.9,1.2-6.2,3.3
	C66.7,21.8,65,25,65,25s-6.6,1.6-5.9-1.1c0.2-0.7,6-9.9,6-9.9s1.1-1.7,1.1-2.9S65,9,64.1,8.9c-0.9-0.1-1.9,1.2-1.9,1.2l-4.8,7.5
	c0,0-4.1-2.7-8.4,1c-2.8,2.4-4,5.9-4,5.9s-5.2,2.3-5.1-0.4c0.2-1,0.7-2.4,0.7-2.4s0.3-0.5,0-1.9c-0.4-1.4-2.2-3.2-5.2-3.4
	c-3.8-0.2-6.3,1.7-7.6,3.2c-1.5,1.9-2.2,3.7-2.2,3.7s-4.4,1.1-7,1.7c-2.6,0.6-3.1-1.1-3-3.2s7.4-13.2,8-14.1
	c0.8-1.2,1.8-1.9,2.7-1.4c1.1,0.5,0.5,1.9-0.1,2.7c-0.7,1-2.1,1.2-2.2,2.4c-0.1,1.2,1.2,1.8,2.2,1.7c1.3-0.1,2.7-2.3,3.4-3.5
	c0.7-1.3,0.8-4.5-0.2-6.4c-1-1.8-2.4-2.3-3.7-2.4c-1.3-0.1-3.3,0.9-4.2,1.8c-3.8,3.9-8.2,12.1-9.1,13.6c-0.9,1.4-2.9,4.9-3.9,5.6
	c-1,0.7-3.6,0.6-5.1,0.9C1.8,23,1,24.6,0.9,25.9c-0.2,2.1,2.9,3.4,5,3.5s6.1-2.6,6.1-2.6s1.2,2.6,4.5,2.6c2,0,9.1-2.7,9.1-2.7
	s-0.7,3.1,4.3,3c2.1-0.1,4.4-1.7,4.4-1.7s1.5,1.6,3.3,1.7c1.8,0.1,8.1-2.1,8.1-2.1s0.9,2.8,3.5,2.8c2.6,0,5.1-2.1,5.1-2.1
	s0.6,2.2,2.7,2.2c2.1,0,8.1-2.8,8.1-2.8s1.2,2.6,3.1,2.6c1.9,0,5.5-1.4,5.5-1.4s1.7,1.5,3.9,1.4c2.2-0.1,4.7-1.4,6-2.4
	C84.7,26.9,85.7,25.6,84.7,24.7z M30.5,25c-2.1-2.2,3.4-6.9,5.6-4.9C38.3,22,32.7,26.8,30.5,25z M49.8,25.4
	c-2.1-2.2,3.5-7.1,5.8-5.1S52.1,27.3,49.8,25.4z M71.4,25.3c-2.1-2.2,3.4-7.2,5.6-5.3C79.3,22.1,73.7,27.2,71.4,25.3z"/>
</svg>
