<svg width="125" height="15" viewBox="0 0 125 15" fill="none" xmlns="http://www.w3.org/2000/svg">
<path d="M32.7693 12.2982C32.8636 12.2128 32.9242 12.0964 32.9402 11.9701C32.9387 11.8435 32.8955 11.721 32.8171 11.6215L27.7795 3.76098L22.6462 11.6489C22.565 11.7445 22.5192 11.8652 22.5164 11.9906C22.5299 12.1167 22.5852 12.2346 22.6736 12.3256L23.1931 13.0091H20.2607L28.2102 1.0542H29.9942L37.8889 13.0091H32.2156L32.7693 12.2982Z" fill="black"/>
<path d="M11.5941 11.5327L12.6194 10.7124V12.9749H0.650879V1.02002H5.10064L4.19154 2.07948C4.1075 2.16114 4.04296 2.2607 4.00272 2.37076C3.96249 2.48082 3.94759 2.59854 3.95915 2.71515V11.7514H10.9243C11.0452 11.767 11.168 11.7554 11.2839 11.7176C11.3998 11.6798 11.5058 11.6166 11.5941 11.5327Z" fill="black"/>
<path d="M93.3989 1.02002H97.835V11.3276C97.8253 11.4445 97.8403 11.5622 97.8792 11.6729C97.9181 11.7836 97.9799 11.8849 98.0606 11.9701L98.8603 12.9749H94.4174V2.61261C94.427 2.49672 94.4119 2.38011 94.373 2.27051C94.3341 2.16092 94.2723 2.06085 94.1918 1.97693L93.3989 1.02002Z" fill="black"/>
<path d="M46.5087 4.88876V11.4233C46.4991 11.5392 46.5142 11.6558 46.5531 11.7654C46.592 11.875 46.6537 11.975 46.7342 12.059L47.4588 12.9749H45.2852V1.02002H46.3515L59.8511 8.96944V2.55796C59.8607 2.44206 59.8456 2.32545 59.8067 2.21586C59.7678 2.10626 59.7061 2.00619 59.6256 1.92228L58.9078 1.02002H61.0951V12.9749H59.9741L46.5087 4.88876Z" fill="black"/>
<path d="M119.228 12.2982C119.32 12.211 119.38 12.0955 119.399 11.9701C119.395 11.8428 119.35 11.7204 119.269 11.6215L114.239 3.76098L109.105 11.6489C109.024 11.7445 108.978 11.8652 108.975 11.9906C108.989 12.1167 109.044 12.2346 109.133 12.3256L109.652 13.0091H106.72L114.669 1.0542H116.453L124.348 13.0091H118.661L119.228 12.2982Z" fill="black"/>
<path d="M69.2085 6.99414C69.2277 6.18521 69.4208 5.3899 69.7746 4.6622C70.1284 3.9345 70.6347 3.29148 71.2591 2.77679C72.5174 1.73372 74.0374 1.05527 75.6542 0.815066C78.8906 0.297767 82.2037 1.00178 84.9501 2.79043C84.9501 3.22789 84.9501 3.67217 84.9501 4.10963C82.8617 2.56048 80.259 1.87069 77.6774 2.18212C76.4157 2.33836 75.2274 2.86115 74.2598 3.68585C73.7882 4.09896 73.4097 4.6075 73.1493 5.17781C72.8889 5.74811 72.7525 6.3672 72.7492 6.99414C72.7472 7.6206 72.8799 8.24017 73.1382 8.81092C73.3964 9.38168 73.7742 9.89029 74.2461 10.3024C75.2139 11.1256 76.4024 11.6462 77.6637 11.7993C78.9625 11.9756 80.2837 11.8849 81.5462 11.5328C82.7745 11.1918 83.9319 10.6339 84.9638 9.88544C84.9638 10.3229 84.9638 10.7603 84.9638 11.1978C82.2155 12.9821 78.9049 13.6881 75.6678 13.18C74.051 12.9359 72.5315 12.2552 71.2728 11.2115C70.6459 10.6981 70.137 10.0556 69.7808 9.32787C69.4246 8.6001 69.2294 7.80414 69.2085 6.99414Z" fill="black"/>
</svg>
