<?xml version="1.0" encoding="UTF-8"?>
<svg id="Layer_1" data-name="Layer 1" xmlns="http://www.w3.org/2000/svg" viewBox="0 0 1919.69 951.98">
  <defs>
    <style>
      .cls-1 {
        fill: #b1b1b1;
        stroke-width: 0px;
      }
    </style>
  </defs>
  <path class="cls-1" d="m1586.83,39.36c37.43,0,80.73,0,124.02,0,19.39,0,21.79,2.67,19.11,21.5-2.35,16.42-5.3,32.77-7.13,49.25-1.08,9.76-6.62,13.58-15.23,14.62-4.18.51-8.45.43-12.67.44-91.16.17-182.31.17-273.47.51-47.51.18-95.02.92-142.54,1.45-12.44.14-14.35,1.47-15.36,13.68-1.34,16.2-1.65,32.48-2.85,48.69-.71,9.67,3.8,12.46,12.72,12.41,42-.25,84.01-.97,125.98.02,56.9,1.34,113.91.37,170.67,5.67,48.28,4.51,96.39,9.71,142.48,26.68,51.5,18.96,78.13,56,83.33,109.68,2.65,27.3,2.62,54.45-2.89,81.56-9.05,44.52-35.74,74.23-76.23,92.52-44.34,20.02-91.43,29.16-139.4,35.16-53.96,6.76-108.03,10.41-162.39,12.38-50.5,1.82-100.88.73-151.25-1.08-64.68-2.32-129.32-6.35-193.02-19.13-5.1-1.02-10.22-2.11-15.16-3.69-9.49-3.05-12.52-8.91-8.34-18.05,8.25-18.05,17.09-35.84,25.83-53.66,3.95-8.06,11.49-9.26,19.2-8.49,19.41,1.92,38.75,4.64,58.17,6.46,27.84,2.6,55.7,5.26,83.6,6.85,32.47,1.85,65,3.66,97.5,3.5,44.87-.23,89.76-.88,134.57-4.44,36.07-2.87,71.84-7.3,106.94-16.26,10.13-2.59,19.94-6.09,29.14-11.07,25.55-13.84,32.27-37.61,33.42-64.17.54-12.44-1.06-24.73-4.2-36.72-4.92-18.8-16.28-32.12-34.39-39.82-23.83-10.13-49.17-12.85-74.46-14.04-98.57-4.64-197.23-2.83-295.83-1.58-36.44.46-72.89.73-109.33,1.18-15.62.19-18.09-3.07-17.27-18.28,2.29-42.54,4.16-85.1,6.45-127.64,1.61-29.87,3.92-59.7,5.33-89.58.43-9.13,5.06-12.87,13.05-13.93,4.17-.55,8.44-.46,12.67-.47,93.76-.16,187.53.48,281.28-.73,54.03-.7,108.05-.68,167.95-1.35v-.03Z"/>
  <path class="cls-1" d="m1047.82,874.93c9.79,8.62,16.95,17.03,26.12,23.15,20.05,13.38,41.56,20.07,65.68,14.38,29.17-6.88,39.53-35.77,21.57-59.74-11.66-15.57-28.55-24.43-44.48-34.45-15.7-9.88-31.84-19.07-45.56-31.78-22.69-21.02-30.44-46.58-21.7-76.22,8.61-29.19,30-44.71,58.78-50.99,28.22-6.15,54.88-1.43,80.31,12,6.93,3.66,10.09,8.36,9.54,16.26-.52,7.45.04,14.97-.18,22.45-.1,3.44,1.8,8.23-1.52,10-3.52,1.87-6.09-2.63-8.76-4.72-17.48-13.64-36.95-21.65-59.41-21.44-.98,0-1.95,0-2.93.06-19.55,1.12-34.74,10.99-39.26,25.51-4.44,14.26,2.18,29.37,18.35,41.79,13.48,10.36,28.64,18,43.26,26.5,14.13,8.21,27.79,17.18,38.79,29.33,24.06,26.58,29.18,64.49,13.33,94.33-15.42,29.04-49.25,44.53-86.74,39.79-20.99-2.65-40.52-9.19-58.28-20.91-4.84-3.2-7.14-6.92-7.01-12.82.29-13.53.09-27.07.09-42.5v.02Z"/>
  <path class="cls-1" d="m1799.39,780.95c3.63-.2,5.02-3.13,7.05-5.04,21.02-19.74,45.32-26.96,72.73-16.63,26.94,10.15,38.84,32.45,39.76,59.61,1.35,39.98.45,80.04.62,120.07.03,6.08-2.35,8.95-8.65,8.86-34.6-.49-28.13,4.61-28.54-26.86-.39-29.61-.07-59.23-.11-88.84,0-4.23.05-8.5-.5-12.67-3.66-27.6-28.51-41.75-54.14-30.81-10.71,4.57-18.98,12.43-26.74,20.86-3.47,3.77-2.7,8.53-2.71,13.02-.04,37.42,0,74.85-.04,112.27-.01,12.93-.1,13.12-13.11,12.99-27.83-.27-23.93,3.59-24.03-23.51-.19-51.09.17-102.19-.25-153.28-.08-9.88,2.98-14.01,12.8-12.6.64.09,1.3.01,1.95,0,13.89-.03,21.51,6.66,22.86,20.09.09.85.71,1.65,1.07,2.46h-.02Z"/>
  <path class="cls-1" d="m1013.19,244.89c-5.29-77.37-41.25-135.33-107.47-175.44C832.1,24.86,750.7,8.74,666.49,2.22c-44.54-3.45-89.15-1.76-133.73-2.06h-14.65c-73.21.12-146.45-.58-219.02,11.89-59.09,10.15-116.32,25.66-168.54,56.24-47.42,27.77-83.7,65.74-106.07,116.34C4.15,230.6-2.25,279,.67,328.72c3.02,51.5,20.89,97.13,57.41,134.35,46.13,47.02,105.06,70.18,167.04,85.94,68.53,17.42,138.97,20.4,209.28,21.22,88.82,1.04,177.69,1.02,266.03-10.84,5.19-.7,11.3-1.02,13.74,4.69,2.45,5.73-4.04,7.22-7,10.23-1.8,1.84-4.04,3.26-6.15,4.79-56.43,41-117.71,73.12-182.25,99.19-95.86,38.72-195.35,63.96-297.32,80.02-16.7,2.63-33.77,3.18-50.07,7.97-14.18,4.17-16.85,11.31-9.92,24,6.39,11.71,13.21,23.22,18.99,35.23,4.87,10.12,12.58,14.94,23.23,17.12,20.05,4.11,39.66-.49,59.18-2.97,77.55-9.84,154.36-23.71,229.91-44.17,105.21-28.48,206.19-66.87,298.01-126.7,67.66-44.09,125.58-97.8,166.46-168.56,45.81-79.28,62.15-164.69,55.95-255.34Zm-164.16,99.05c-12.43,58.99-48.49,94.5-106.2,109.82-39.24,10.42-79.23,14.88-119.55,17.22-47.14,2.73-94.36,3.02-141.53,1.82-58.51-1.49-117.24-1.55-175.27-9.82-41.22-5.87-79.5-20.19-108.29-52.82-19.59-22.2-28.37-48.95-31-77.59-3.75-40.81-.57-81.18,11.78-120.57,14.06-44.84,44.05-74.29,87.39-90.87,36.53-13.97,74.75-20.11,113.47-23.02,52.27-3.93,104.68-3.92,167.74-4.05h0c39.15-.74,88.94-.33,138.26,7.94,44.13,7.4,85.99,20.58,121.93,48.8,33.2,26.07,50.63,59.83,50.27,102.03-.26,30.58-2.67,61.02-9.01,91.11Z"/>
  <path class="cls-1" d="m1571.73,804.34h-.01c0-39.35.19-78.7-.06-118.06-.19-29.74,4.4-24.96-25.87-25.85-9.39-.28-11.59,3.57-11.46,12.07.37,25.36.14,50.74.12,76.11,0,13.14.01,12.93-12.82,9.89-38.47-9.11-72.35-1.55-99.39,28.66-19.71,22.03-22.6,48.88-20.76,76.89,3.22,48.98,39.35,83.3,88.38,83.71,23.1.19,46.21-.38,69.29.25,9.97.27,12.85-3.19,12.76-12.91-.42-43.59-.18-87.17-.18-130.76Zm-48.06,112.19c-14.57-.77-29.23,1.12-43.74-1.99-16.4-3.52-28.23-12.29-35.06-27.91-13.48-30.82-4.32-71.44,20.9-87.99,20.13-13.21,41.91-11.66,63.78-4.68,5.26,1.68,4.86,6.32,4.87,10.54.04,16.9.02,33.81.02,50.71h.01c0,16.91-.3,33.83.13,50.72.21,8.18-3,11.02-10.91,10.6Z"/>
  <path class="cls-1" d="m1267,859.48c18.54.3,37.09.09,55.64.08s37.1-.32,55.64.12c9.3.22,12.36-3.75,11.08-12.38-1.29-8.68-2.01-17.47-3.77-26.05-8.16-39.7-31.07-61.94-70.42-66-33.93-3.51-69.09,11.7-85.96,46.93-9.97,20.81-12.16,42.8-9.48,65.64,5.13,43.71,35.85,77.24,78.1,83,22.93,3.13,45.2-.82,66.93-9.26,15.51-6.03,24.84-14.65,21.16-32.57-.52-2.5-.19-5.19-.07-7.79.27-6.06-2.03-6.59-6.91-3.8-11.32,6.47-23.09,11.98-35.75,15.42-41.2,11.2-73.75-5.21-84.53-42.21-2.47-8.47-.22-11.27,8.34-11.13Zm-8.4-32.11c4.49-17.75,13.36-32.02,31.96-37.33,18.64-5.32,36.18-3.85,50.1,11.76,1.72,1.93,3.25,4.08,4.53,6.32,11.76,20.58,8.7,26.23-14.12,26.23h-27.32v-.04c-13.01,0-26.02-.04-39.02.02-4.82.02-7.52-1.46-6.13-6.96Z"/>
  <path class="cls-1" d="m1748.11,918.65c-1.98-4.42-7.42,1.79-11.19,3.3-9.7,3.89-13.97,1.51-14.77-9.14-.22-2.91-.12-5.85-.12-8.78-.02-29.93-.09-59.87-.02-89.8.03-12.07-2.95-23.22-9.73-33.2-11.8-17.38-29.57-23.86-49.34-25.62-24.46-2.18-47.37,1.97-66.21,19.4-2.88,2.66-5.67,5.44-5.67,9.82v33.77h0c4.8-.96,6.43-3.58,8.4-5.62,12.77-13.2,28.32-20.95,46.53-22.18,27.64-1.87,39.1,9.47,38.87,34.83-.05,6.19-2.36,9.46-8.2,11.38-12.37,4.06-24.62,8.46-36.81,13.02-13.72,5.14-27.33,10.52-38.04,21.22-15.39,15.36-19.24,36.67-9.72,55.47,9.37,18.51,29.29,27.97,50.81,24.48,13.1-2.12,25.1-6.83,35.86-14.48,3.92-2.79,6.2-2.56,8.11,1.98,3.05,7.28,9.12,10.75,16.5,12.3,16.33,3.42,30.41-2.34,42.67-12.13,6.26-5.01,4.67-14.23,2.07-20.02Zm-63.33-20.69c-.05,13.82-10.38,24.04-26.56,26.29-16.96,2.36-28.27-4.38-32.3-19.23-3.02-11.12,1.57-19.88,9.44-26.87,12.38-11,27.95-16.09,43.2-21.61,4.1-1.48,6.19.08,6.17,4.48-.02,7.45,0,14.91,0,22.36h.05c0,4.86.01,9.72,0,14.58Z"/>
</svg>